<?xml version="1.0" encoding="utf-8"?>
<svg version="1.1" id="poker" xmlns="http://www.w3.org/2000/svg" xmlns:xlink="http://www.w3.org/1999/xlink" x="0px" y="0px"
	 viewBox="0 0 1000 1000" style="enable-background:new 0 0 1000 1000;" xml:space="preserve">
<path d="M230.99,763.86l67.65-475.09c1.19-8.28,3.19-16.4,6-24.25l-66.26,3.45c-48.32,2.51-85.49,44.81-83.04,94.47l23.68,479.53
	c2.37,47.83,40.77,85.41,87.38,85.46c1.52,0,3.02-0.03,4.54-0.11l178.41-9.31L329.63,900C265.87,890.34,221.73,829.43,230.99,763.86
	z"/>
<path d="M850.41,304.51c-13.83-19.18-34.56-31.9-57.57-35.31l-346.68-52.15c-47.88-7.2-92.36,26.85-99.35,76.05L279.15,768.2
	c-6.53,49.07,26.37,94.5,73.99,102.11l346.68,52.15c47.75,6.73,91.93-27.1,99.35-76.04l67.65-475.09
	C870.25,347.7,864.34,323.63,850.41,304.51z M730.5,613.69c-7.78,52.15-49.75,83.13-102,75.34c-20.75-3.09-37.9-15.99-50.52-29.3
	c4.43,31.67,11.85,67.54,24.22,93.93c-34.95-11.56-71.33-17.27-108.43-16.18c19.68-21.63,37.28-53.79,50.73-82.81
	c-15.98,9.05-36.21,16.41-57.01,13.31c-52.27-7.8-83.33-49.69-75.56-101.85c8.58-57.5,59.48-87.89,108.7-117.26
	c23.24-13.88,47.29-28.23,66.64-45.24c3.26-2.84,7.59-4.12,11.85-3.49l0.84,0.12c4.26,0.64,8.02,3.13,10.29,6.79
	c13.53,21.95,32.36,42.67,50.52,62.75C699.29,512.26,739.08,556.2,730.5,613.69z"/>
</svg>
